REM DIRINDEX 1\2,1\3,1\4,1\5
REM DIRNAME cjc004,folder01,folder02,folder03,folder04
TITLE ""
FILE "1Q_t_0130-0139.mp3" MP3
  TRACK 01 AUDIO
    TITLE "3:cjc004_1290"
    INDEX 01 00:00:00
  TRACK 02 AUDIO
    TITLE "0:"
    INDEX 01 00:01:01
  TRACK 03 AUDIO
    TITLE "4:cjc004_1291"
    INDEX 01 00:01:24
  TRACK 04 AUDIO
    TITLE "0:"
    INDEX 01 00:02:57
  TRACK 05 AUDIO
    TITLE "5:cjc004_1292"
    INDEX 01 00:03:14
  TRACK 06 AUDIO
    TITLE "0:"
    INDEX 01 00:08:13
  TRACK 07 AUDIO
    TITLE "3:cjc004_1293"
    INDEX 01 00:08:72
  TRACK 08 AUDIO
    TITLE "0:"
    INDEX 01 00:10:14
  TRACK 09 AUDIO
    TITLE "4:cjc004_1294"
    INDEX 01 00:10:35
  TRACK 10 AUDIO
    TITLE "0:"
    INDEX 01 00:12:24
  TRACK 11 AUDIO
    TITLE "5:cjc004_1295"
    INDEX 01 00:12:48
  TRACK 12 AUDIO
    TITLE "0:"
    INDEX 01 00:16:44
  TRACK 13 AUDIO
    TITLE "3:cjc004_1296"
    INDEX 01 00:17:27
  TRACK 14 AUDIO
    TITLE "0:"
    INDEX 01 00:18:33
  TRACK 15 AUDIO
    TITLE "4:cjc004_1297"
    INDEX 01 00:18:72
  TRACK 16 AUDIO
    TITLE "0:"
    INDEX 01 00:20:26
  TRACK 17 AUDIO
    TITLE "5:cjc004_1298"
    INDEX 01 00:20:55
  TRACK 18 AUDIO
    TITLE "0:"
    INDEX 01 00:25:11
  TRACK 19 AUDIO
    TITLE "3:cjc004_1299"
    INDEX 01 00:25:58
  TRACK 20 AUDIO
    TITLE "0:"
    INDEX 01 00:27:06
  TRACK 21 AUDIO
    TITLE "4:cjc004_1300"
    INDEX 01 00:27:41
  TRACK 22 AUDIO
    TITLE "0:"
    INDEX 01 00:28:74
  TRACK 23 AUDIO
    TITLE "5:cjc004_1301"
    INDEX 01 00:29:21
  TRACK 24 AUDIO
    TITLE "0:"
    INDEX 01 00:33:28
  TRACK 25 AUDIO
    TITLE "3:cjc004_1302"
    INDEX 01 00:34:12
  TRACK 26 AUDIO
    TITLE "0:"
    INDEX 01 00:35:15
  TRACK 27 AUDIO
    TITLE "4:cjc004_1303"
    INDEX 01 00:35:45
  TRACK 28 AUDIO
    TITLE "0:"
    INDEX 01 00:36:68
  TRACK 29 AUDIO
    TITLE "5:cjc004_1304"
    INDEX 01 00:37:20
  TRACK 30 AUDIO
    TITLE "0:"
    INDEX 01 00:41:34
  TRACK 31 AUDIO
    TITLE "3:cjc004_1305"
    INDEX 01 00:42:23
  TRACK 32 AUDIO
    TITLE "0:"
    INDEX 01 00:43:46
  TRACK 33 AUDIO
    TITLE "4:cjc004_1306"
    INDEX 01 00:43:60
  TRACK 34 AUDIO
    TITLE "0:"
    INDEX 01 00:45:43
  TRACK 35 AUDIO
    TITLE "5:cjc004_1307"
    INDEX 01 00:45:71
  TRACK 36 AUDIO
    TITLE "0:"
    INDEX 01 00:51:48
  TRACK 37 AUDIO
    TITLE "3:cjc004_1308"
    INDEX 01 00:52:28
  TRACK 38 AUDIO
    TITLE "0:"
    INDEX 01 00:53:45
  TRACK 39 AUDIO
    TITLE "4:cjc004_1309"
    INDEX 01 00:53:70
  TRACK 40 AUDIO
    TITLE "0:"
    INDEX 01 00:55:34
  TRACK 41 AUDIO
    TITLE "5:cjc004_1310"
    INDEX 01 00:55:61
  TRACK 42 AUDIO
    TITLE "0:"
    INDEX 01 01:01:07
  TRACK 43 AUDIO
    TITLE "3:cjc004_1311"
    INDEX 01 01:01:62
  TRACK 44 AUDIO
    TITLE "0:"
    INDEX 01 01:03:31
  TRACK 45 AUDIO
    TITLE "4:cjc004_1312"
    INDEX 01 01:03:43
  TRACK 46 AUDIO
    TITLE "0:"
    INDEX 01 01:04:74
  TRACK 47 AUDIO
    TITLE "5:cjc004_1313"
    INDEX 01 01:05:30
  TRACK 48 AUDIO
    TITLE "0:"
    INDEX 01 01:09:38
  TRACK 49 AUDIO
    TITLE "3:cjc004_1314"
    INDEX 01 01:10:31
  TRACK 50 AUDIO
    TITLE "0:"
    INDEX 01 01:11:39
  TRACK 51 AUDIO
    TITLE "4:cjc004_1315"
    INDEX 01 01:11:66
  TRACK 52 AUDIO
    TITLE "0:"
    INDEX 01 01:13:20
  TRACK 53 AUDIO
    TITLE "5:cjc004_1316"
    INDEX 01 01:13:51
  TRACK 54 AUDIO
    TITLE "0:"
    INDEX 01 01:17:65
  TRACK 55 AUDIO
    TITLE "3:cjc004_1317"
    INDEX 01 01:18:49
  TRACK 56 AUDIO
    TITLE "0:"
    INDEX 01 01:20:04
  TRACK 57 AUDIO
    TITLE "4:cjc004_1318"
    INDEX 01 01:20:42
  TRACK 58 AUDIO
    TITLE "0:"
    INDEX 01 01:22:44
  TRACK 59 AUDIO
    TITLE "5:cjc004_1319"
    INDEX 01 01:23:01
  TRACK 60 AUDIO
    TITLE "0:"
    INDEX 01 01:27:44
